<svg width="18" height="18" viewBox="0 0 18 18" fill="none" xmlns="http://www.w3.org/2000/svg">
<g id="spin">
<path id="image 69 (Traced)" fill-rule="evenodd" clip-rule="evenodd" d="M7.27787 0.664826C4.3372 1.28399 1.97485 3.35397 0.94814 6.21123C0.350991 7.87287 0.350587 10.1191 0.947128 11.7885C2.17995 15.2388 5.36748 17.5 8.99828 17.5C12.6291 17.5 15.8166 15.2388 17.0494 11.7885C17.5049 10.5138 17.6272 8.79358 17.3606 7.41211C16.7837 4.4233 14.6824 1.98687 11.7872 0.949851C10.4737 0.479375 8.69312 0.36685 7.27787 0.664826ZM10.2801 4.44624L11.1891 5.35696L10.2801 6.26769C9.78022 6.76859 9.34175 7.17842 9.30566 7.17842C9.26963 7.17842 9.12464 7.06569 8.9835 6.92787L8.72693 6.67732L9.18125 6.21952L9.63557 5.76173H9.22652C8.18334 5.76173 7.09484 6.24462 6.26493 7.07554C5.48332 7.85809 5.05572 8.73428 4.97186 9.72508L4.9305 10.2142H4.53663H4.14276L4.18149 9.79254C4.30394 8.45985 4.85271 7.32596 5.81101 6.42562C6.69752 5.59267 7.66419 5.1539 8.9296 5.01001L9.61553 4.93202L9.17227 4.4853L8.72895 4.03863L8.9806 3.78707C9.11898 3.64871 9.26342 3.53551 9.30167 3.53551C9.33993 3.53551 9.78022 3.94534 10.2801 4.44624ZM13.8151 8.2072C13.6926 9.5399 13.1438 10.6738 12.1855 11.5741C11.299 12.4071 10.3324 12.8458 9.06696 12.9897L8.38102 13.0677L8.82529 13.5155L9.26963 13.9631L9.01305 14.2137C8.87191 14.3515 8.73037 14.4642 8.69852 14.4642C8.66668 14.4642 8.23044 14.0543 7.72902 13.5533L6.81748 12.6423L7.71911 11.7319C8.21505 11.231 8.6513 10.8213 8.68861 10.8213C8.72591 10.8213 8.87191 10.9341 9.01305 11.0719L9.26963 11.3224L8.81531 11.7802L8.36099 12.238L8.73023 12.2369C10.861 12.2301 12.8448 10.3998 13.0247 8.27466L13.0661 7.78557H13.4599H13.8538L13.8151 8.2072Z" fill="#FFF500"/>
</g>
</svg>
