<svg width="101" height="16" viewBox="0 0 101 16" fill="none" xmlns="http://www.w3.org/2000/svg">
<path d="M5.94 15.14C4.3 15.14 2.95333 14.7533 1.9 13.98C0.846667 13.1933 0.28 12.0733 0.2 10.62H4.38C4.42 11.1133 4.56667 11.4733 4.82 11.7C5.07333 11.9267 5.4 12.04 5.8 12.04C6.16 12.04 6.45333 11.9533 6.68 11.78C6.92 11.5933 7.04 11.34 7.04 11.02C7.04 10.6067 6.84667 10.2867 6.46 10.06C6.07333 9.83333 5.44667 9.58 4.58 9.3C3.66 8.99333 2.91333 8.7 2.34 8.42C1.78 8.12667 1.28667 7.70667 0.86 7.16C0.446667 6.6 0.24 5.87333 0.24 4.98C0.24 4.07333 0.466667 3.3 0.92 2.66C1.37333 2.00667 2 1.51333 2.8 1.18C3.6 0.846666 4.50667 0.68 5.52 0.68C7.16 0.68 8.46667 1.06667 9.44 1.84C10.4267 2.6 10.9533 3.67333 11.02 5.06H6.76C6.74667 4.63333 6.61333 4.31333 6.36 4.1C6.12 3.88667 5.80667 3.78 5.42 3.78C5.12667 3.78 4.88667 3.86667 4.7 4.04C4.51333 4.21333 4.42 4.46 4.42 4.78C4.42 5.04667 4.52 5.28 4.72 5.48C4.93333 5.66667 5.19333 5.83333 5.5 5.98C5.80667 6.11333 6.26 6.28667 6.86 6.5C7.75333 6.80667 8.48667 7.11333 9.06 7.42C9.64667 7.71333 10.1467 8.13333 10.56 8.68C10.9867 9.21333 11.2 9.89333 11.2 10.72C11.2 11.56 10.9867 12.3133 10.56 12.98C10.1467 13.6467 9.54 14.1733 8.74 14.56C7.95333 14.9467 7.02 15.14 5.94 15.14ZM23.7543 5.6C23.7543 6.45333 23.5543 7.23333 23.1543 7.94C22.7677 8.63333 22.1743 9.19333 21.3743 9.62C20.5877 10.0333 19.621 10.24 18.4743 10.24H16.5343V15H12.6143V0.899999H18.4743C19.6077 0.899999 20.5677 1.1 21.3543 1.5C22.1543 1.9 22.7543 2.45333 23.1543 3.16C23.5543 3.86667 23.7543 4.68 23.7543 5.6ZM18.0943 7.12C19.201 7.12 19.7543 6.61333 19.7543 5.6C19.7543 4.57333 19.201 4.06 18.0943 4.06H16.5343V7.12H18.0943ZM28.8412 0.899999V15H24.9212V0.899999H28.8412ZM43.7255 15H39.8055L34.5855 7.12V15H30.6655V0.899999H34.5855L39.8055 8.88V0.899999H43.7255V15ZM80.8033 0.899999L77.3433 15H72.5233L70.5833 6.36L68.6033 15H63.7833L60.3633 0.899999H64.6033L66.2433 10.54L68.4633 0.899999H72.7633L74.9233 10.46L76.5633 0.899999H80.8033ZM85.9787 0.899999V15H82.0587V0.899999H85.9787ZM100.863 15H96.9431L91.7231 7.12V15H87.8031V0.899999H91.7231L96.9431 8.88V0.899999H100.863V15Z" fill="white"/>
<path d="M57.3505 10.18C56.9638 10.74 56.5905 11.2333 56.2305 11.66L59.0305 15H55.5905L54.3305 13.5C52.8372 14.66 51.1572 15.24 49.2905 15.24C47.8905 15.24 46.7838 14.9267 45.9705 14.3C45.1572 13.66 44.7505 12.78 44.7505 11.66C44.7505 10.58 45.1105 9.61333 45.8305 8.76C46.5505 7.89333 47.5105 7.21333 48.7105 6.72C48.2838 6.09333 48.0705 5.46 48.0705 4.82C48.0705 4.03333 48.2705 3.33333 48.6705 2.72C49.0705 2.10667 49.6238 1.63333 50.3305 1.3C51.0505 0.953333 51.8638 0.779999 52.7705 0.779999C53.8638 0.779999 54.7105 1.04667 55.3105 1.58C55.9105 2.1 56.2105 2.76 56.2105 3.56C56.2105 3.73333 56.1905 3.92 56.1505 4.12H53.4305C53.4438 4.06667 53.4505 3.98667 53.4505 3.88C53.4505 3.58667 53.3505 3.35333 53.1505 3.18C52.9638 3.00667 52.7038 2.92 52.3705 2.92C51.9305 2.92 51.5638 3.06667 51.2705 3.36C50.9772 3.64 50.8305 3.98667 50.8305 4.4C50.8305 4.66667 50.9038 4.95333 51.0505 5.26C51.1972 5.55333 51.4238 5.9 51.7305 6.3L54.6705 9.8L54.7905 9.62L56.2705 7.72H59.1905L57.3505 10.18ZM49.7705 12.92C50.8772 12.92 51.9105 12.5333 52.8705 11.76L50.0305 8.36C49.2838 8.66667 48.6972 9.06667 48.2705 9.56C47.8438 10.04 47.6305 10.58 47.6305 11.18C47.6305 11.6867 47.8238 12.1067 48.2105 12.44C48.5972 12.76 49.1172 12.92 49.7705 12.92Z" fill="#09B2FB"/>
</svg>
